<svg xmlns="http://www.w3.org/2000/svg" xmlns:xlink="http://www.w3.org/1999/xlink" viewBox="0 0 564 371"><title>1</title><g id="Слой_2" data-name="Слой 2"><g id="Layer_2" data-name="Layer 2"><rect width="120" height="50" style="fill:#fff"/><text class="sign" transform="translate(4 13)" style="font-size:12px;fill:#da1b33;font-family:Roboto-Regular, Roboto Regular;letter-spacing:0.073974609375em">с<tspan x="6.26" y="0" style="letter-spacing:0.060017903645833336em">у</tspan><tspan x="12.64" y="0" style="letter-spacing:0.0560302734375em">щ</tspan><tspan x="22.3" y="0" style="letter-spacing:0.060017903645833336em">е</tspan><tspan x="29.03" y="0" style="letter-spacing:0.07596842447916667em">с</tspan><tspan x="35.32" y="0" style="letter-spacing:0.053019205729166664em">т</tspan><tspan x="40.88" y="0" style="letter-spacing:0.048990885416666664em">в</tspan><tspan x="47.47" y="0" style="letter-spacing:0.051025390625em">у</tspan><tspan x="53.74" y="0" style="letter-spacing:0.0560302734375em">е</tspan><tspan x="60.42" y="0" style="letter-spacing:0.059977213541666664em">т</tspan><tspan style="letter-spacing:0.060017903645833336em"><tspan x="0" y="15">б</tspan><tspan x="7.06" y="15" style="letter-spacing:0.06400553385416667em">о</tspan><tspan x="14.41" y="15" style="letter-spacing:0.059977213541666664em">лее 200 ви</tspan><tspan x="75.92" y="15" style="letter-spacing:0.055989583333333336em">д</tspan><tspan x="82.95" y="15">ов</tspan></tspan><tspan style="letter-spacing:0.053995768229166664em"><tspan x="0" y="30">к</tspan><tspan x="6.4" y="30" style="letter-spacing:0.059977213541666664em">офейных </tspan><tspan x="61.73" y="30" style="letter-spacing:0.0560302734375em">д</tspan><tspan x="68.76" y="30" style="letter-spacing:0.060017903645833336em">еревьев</tspan></tspan></text><text class="sign" transform="translate(425 213.04)" style="font-size:12px;fill:#da1b33;font-family:Roboto-Regular, Roboto Regular;letter-spacing:0.060017903645833336em">пр<tspan x="14.76" y="0" style="letter-spacing:0.053019205729166664em">о</tspan><tspan x="21.98" y="0" style="letter-spacing:0.055989583333333336em">д</tspan><tspan x="29.02" y="0" style="letter-spacing:0.06400553385416667em">о</tspan><tspan x="36.37" y="0" style="letter-spacing:0.059977213541666664em">лж</tspan><tspan x="51.9" y="0" style="letter-spacing:0.0570068359375em">и</tspan><tspan x="59.23" y="0" style="letter-spacing:0.039998372395833336em">т</tspan><tspan x="64.64" y="0" style="letter-spacing:0.06502278645833333em">е</tspan><tspan x="71.44" y="0" style="letter-spacing:0.059977213541666664em">льно</tspan><tspan x="99.51" y="0" style="letter-spacing:0.07596842447916667em">с</tspan><tspan x="105.8" y="0" style="letter-spacing:0.053019205729166664em">т</tspan><tspan x="111.37" y="0">ь </tspan><tspan x="0" y="15">жизни </tspan><tspan x="39.89" y="15" style="letter-spacing:0.0560302734375em">д</tspan><tspan x="46.92" y="15" style="letter-spacing:0.059977213541666664em">о 60 л</tspan><tspan x="81.31" y="15" style="letter-spacing:0.055989583333333336em">е</tspan><tspan x="87.99" y="15" style="letter-spacing:-0.0159912109375em">т</tspan><tspan x="92.73" y="15">, </tspan><tspan x="0" y="30">из них </tspan><tspan x="40.7" y="30" style="letter-spacing:0.06396484375em">п</tspan><tspan x="47.96" y="30">л</tspan><tspan x="54.77" y="30" style="letter-spacing:0.053019205729166664em">о</tspan><tspan x="61.99" y="30" style="letter-spacing:0.055989583333333336em">д</tspan><tspan x="69.02" y="30">онос</tspan><tspan x="97.01" y="30" style="letter-spacing:0.057047526041666664em">и</tspan><tspan x="104.34" y="30">т — с </tspan><tspan x="0" y="45">3 </tspan><tspan x="10.14" y="45" style="letter-spacing:0.0560302734375em">д</tspan><tspan x="17.17" y="45" style="letter-spacing:0.059977213541666664em">о 20 л</tspan><tspan x="51.56" y="45" style="letter-spacing:0.0560302734375em">е</tspan><tspan x="58.25" y="45" style="letter-spacing:0.0599365234375em">т</tspan></text><text class="sign" transform="translate(273.5 350.16)" style="font-size:12px;fill:#da1b33;font-family:Roboto-Regular, Roboto Regular;letter-spacing:0.060017903645833336em">ра<tspan x="14.05" y="0" style="letter-spacing:0.07600911458333333em">с</tspan><tspan x="20.34" y="0" style="letter-spacing:0.039957682291666664em">т</tspan><tspan x="25.75" y="0" style="letter-spacing:0.0560302734375em">е</tspan><tspan x="32.44" y="0" style="letter-spacing:0.059977213541666664em">т на вы</tspan><tspan x="73.81" y="0" style="letter-spacing:0.053995768229166664em">с</tspan><tspan x="79.83" y="0" style="letter-spacing:0.052001953125em">о</tspan><tspan x="87.05" y="0" style="letter-spacing:0.039998372395833336em">т</tspan><tspan x="92.46" y="0">е 700-2300 м </tspan><tspan x="0" y="15">над уровнем моря</tspan></text><text class="sign" transform="translate(46.43 360) rotate(-90)" style="font-size:12px;fill:#da1b33;font-family:Roboto-Regular, Roboto Regular;letter-spacing:0.059977213541666664em"> <tspan x="3.26" y="0" style="letter-spacing:0.0560302734375em">д</tspan><tspan x="10.3" y="0" style="letter-spacing:0.060017903645833336em">о</tspan><tspan x="17.6" y="0" style="letter-spacing:0.07596842447916667em">с</tspan><tspan x="23.89" y="0" style="letter-spacing:0.053019205729166664em">т</tspan><tspan x="29.46" y="0">и</tspan><tspan x="36.83" y="0" style="letter-spacing:0.045979817708333336em">г</tspan><tspan x="42" y="0" style="letter-spacing:0.060017903645833336em">а</tspan><tspan x="48.5" y="0" style="letter-spacing:0.0560302734375em">е</tspan><tspan x="55.19" y="0">т в вы</tspan><tspan x="89.51" y="0" style="letter-spacing:0.053995768229166664em">с</tspan><tspan x="95.53" y="0" style="letter-spacing:0.052001953125em">о</tspan><tspan x="102.74" y="0" style="letter-spacing:0.073974609375em">т</tspan><tspan x="108.56" y="0" style="letter-spacing:0.060017903645833336em">у 3-4 м</tspan></text><line  class="path" x1="52" y1="202" x2="52" y2="356" style="fill:none;stroke:#da1b33;stroke-miterlimit:10;stroke-width:1.8px"/><line  class="path" x1="266" y1="341" x2="266" y2="371" style="fill:none;stroke:#da1b33;stroke-miterlimit:10;stroke-width:1.8px"/><path class="path" d="M309.77,265.36c39.61-9.37,57.12-30.53,107.57-24.5" style="fill:none;stroke:#c82128;stroke-miterlimit:10;stroke-width:1.8px"/><path class="path" d="M117,22c24-2,42,27,68,28" style="fill:none;stroke:#d80f26;stroke-miterlimit:10;stroke-width:1.8px"/><g id="x3LZNP.tif"><image id="Layer_1" data-name="Layer 1" width="360" height="367" transform="translate(60.75)" xlink:href="1.png"/></g></g></g></svg>