<svg xmlns="http://www.w3.org/2000/svg" xmlns:xlink="http://www.w3.org/1999/xlink" viewBox="0 0 491 354.39"><title>21_1</title><g id="Слой_2" data-name="Слой 2"><g id="Layer_2" data-name="Layer 2"><g id="_8wUqK0.tif" data-name="8wUqK0.tif"><image id="Layer_1" data-name="Layer 1" width="1216" height="716" transform="translate(0 65.28) scale(0.4)" xlink:href="2.png"/></g><text class="sign" transform="translate(3.42 18.43)" style="font-size:12px;fill:#da1b33;font-family:Roboto-Regular, Roboto Regular;letter-spacing:0.060017903645833336em">ядро</text><text class="sign" transform="translate(390.31 80.42)" style="font-size:12px;fill:#da1b33;font-family:Roboto-Regular, Roboto Regular;letter-spacing:0.054036458333333336em">к<tspan x="6.4" y="0" style="letter-spacing:0.051961263020833336em">о</tspan><tspan x="13.61" y="0" style="letter-spacing:0.0670166015625em">ж</tspan><tspan x="22.42" y="0" style="letter-spacing:0.059977213541666664em">ура</tspan></text><text class="sign" transform="translate(3.42 67.01)" style="font-size:12px;fill:#da1b33;font-family:Roboto-Regular, Roboto Regular;letter-spacing:0.060017903645833336em">пер<tspan x="21.49" y="0" style="letter-spacing:0.045979817708333336em">г</tspan><tspan x="26.66" y="0">аме</tspan><tspan x="48.29" y="0" style="letter-spacing:0.0570068359375em">н</tspan><tspan x="55.52" y="0" style="letter-spacing:0.053019205729166664em">т</tspan><tspan x="61.09" y="0">н</tspan><tspan x="68.36" y="0" style="letter-spacing:0.06697591145833333em">а</tspan><tspan x="74.95" y="0">я </tspan><tspan x="0" y="15">об</tspan><tspan x="14.36" y="15" style="letter-spacing:0.06400553385416667em">о</tspan><tspan x="21.72" y="15" style="letter-spacing:0.059977213541666664em">л</tspan><tspan x="28.52" y="15" style="letter-spacing:0.050048828125em">о</tspan><tspan x="35.71" y="15" style="letter-spacing:0.059977213541666664em">ч</tspan><tspan x="42.61" y="15" style="letter-spacing:0.06998697916666667em">к</tspan><tspan x="49.2" y="15" style="letter-spacing:0.059977213541666664em">а</tspan></text><text class="sign" transform="translate(277.86 43.82)" style="font-size:12px;fill:#da1b33;font-family:Roboto-Regular, Roboto Regular;letter-spacing:0.06400553385416667em">п<tspan x="7.26" y="0" style="letter-spacing:0.059977213541666664em">л</tspan><tspan x="14.06" y="0" style="letter-spacing:0.053059895833333336em">о</tspan><tspan x="21.29" y="0" style="letter-spacing:0.055948893229166664em">д</tspan><tspan x="28.32" y="0" style="letter-spacing:0.060017903645833336em">ов</tspan><tspan x="42.35" y="0" style="letter-spacing:0.0670166015625em">а</tspan><tspan x="48.94" y="0" style="letter-spacing:0.059977213541666664em">я </tspan><tspan style="letter-spacing:0.06502278645833333em"><tspan x="0" y="15">м</tspan><tspan x="8.45" y="15" style="letter-spacing:0.059977213541666664em">я</tspan><tspan x="15.12" y="15" style="letter-spacing:0.053995768229166664em">к</tspan><tspan x="21.52" y="15" style="letter-spacing:0.052001953125em">о</tspan><tspan x="28.73" y="15" style="letter-spacing:0.053019205729166664em">т</tspan><tspan x="34.3" y="15" style="letter-spacing:0.059977213541666664em">ь</tspan></tspan></text><path class="path" d="M181.86,30.88s13.66,22.5,21,73" style="fill:none;stroke:#da1b33;stroke-miterlimit:10;stroke-width:1.8px"/><path class="path" d="M394.2,86.09s-20,40.45-38,54.62" style="fill:none;stroke:#e3c216;stroke-miterlimit:10;stroke-width:1.8px"/><path class="path" d="M95.93,68.88s51.93,11.39,76.93,41.83" style="fill:none;stroke:#da1b33;stroke-miterlimit:10;stroke-width:1.8px"/><path class="path" d="M42.86,17.71s83.22,11.67,139,82.17" style="fill:none;stroke:#da1b33;stroke-miterlimit:10;stroke-width:1.8px"/><path class="path" d="M161.29,116.38s-51.42-3-70.42-2.67" style="fill:none;stroke:#da1b33;stroke-miterlimit:10;stroke-width:1.8px"/><text class="sign" transform="translate(3.42 117.11)" style="font-size:12px;fill:#da1b33;font-family:Roboto-Regular, Roboto Regular;letter-spacing:0.060017903645833336em">пе<tspan x="13.94" y="0" style="letter-spacing:0.0770263671875em">к</tspan><tspan x="20.62" y="0" style="letter-spacing:0.052978515625em">т</tspan><tspan x="26.18" y="0">иновый </tspan><tspan style="letter-spacing:0.08101399739583333em"><tspan x="0" y="15">с</tspan><tspan x="6.35" y="15" style="letter-spacing:0.059977213541666664em">лой</tspan></tspan></text><path class="path" d="M271.86,41.38s-19,35-19.67,69.33" style="fill:none;stroke:#e3c216;stroke-miterlimit:10;stroke-width:1.8px"/><text class="sign" transform="translate(138.42 10.04)" style="font-size:12px;fill:#da1b33;font-family:Roboto-Regular, Roboto Regular;letter-spacing:0.060017903645833336em">пр<tspan x="14.76" y="0" style="letter-spacing:0.053019205729166664em">о</tspan><tspan x="21.98" y="0" style="letter-spacing:0.055989583333333336em">д</tspan><tspan x="29.02" y="0" style="letter-spacing:0.06400553385416667em">о</tspan><tspan x="36.37" y="0" style="letter-spacing:0.059977213541666664em">льный </tspan><tspan style="letter-spacing:0.053995768229166664em"><tspan x="0" y="15">ж</tspan><tspan x="8.65" y="15" style="letter-spacing:0.06502278645833333em">е</tspan><tspan x="15.44" y="15" style="letter-spacing:0.059977213541666664em">лобок</tspan></tspan></text></g></g></svg>