<svg xmlns="http://www.w3.org/2000/svg" viewBox="0 0 23.5 23.5"><title>Ресурс 9</title><g id="Слой_2" data-name="Слой 2"><g id="Layer_2" data-name="Layer 2"><path d="M10.41,6.17a1.25,1.25,0,0,1,.38-.94,1.44,1.44,0,0,1,1-.37,1.44,1.44,0,0,1,1,.37,1.24,1.24,0,0,1,.39.94,1.25,1.25,0,0,1-.39.95,1.44,1.44,0,0,1-1,.37,1.44,1.44,0,0,1-1-.37A1.25,1.25,0,0,1,10.41,6.17Zm2.7,12H10.56V8.63h2.55Z" style="fill:#da1b33"/><circle cx="11.75" cy="11.75" r="11" style="fill:none;stroke:#da1b33;stroke-miterlimit:10;stroke-width:1.5px"/></g></g></svg>