<svg xmlns="http://www.w3.org/2000/svg" viewBox="0 0 128.25 22.74"><title>nespresso</title><g id="Слой_2" data-name="Слой 2"><g id="Layer_2" data-name="Layer 2"><path d="M54.78,3.84H47.21V19H51V13.42s5.47.3,7-1.74a5.55,5.55,0,0,0,.74-5A3.89,3.89,0,0,0,54.78,3.84Zm.43,6.81c-.9,1.06-2.88,1-4.19,1V5.54s3.41-.48,4.31,1.07A4.48,4.48,0,0,1,55.22,10.65ZM22.65,21.42A12.66,12.66,0,0,1,18.17,18c-1.47-1.68-5-6.41-5-6.41C11.38,9.26,9,5.38,6.57,3.43v15.5H8.71V11.1C10.21,13,12,15.47,13.29,17c.58.69,2.08,2.32,2.51,2.68a12.27,12.27,0,0,0,12,2.41V22A9.12,9.12,0,0,1,22.65,21.42ZM9.63,4.75c1.47,1.68,5,6.41,5,6.41,1.81,2.33,4.23,6.21,6.62,8.16V3.82H19.09v7.82c-1.5-1.92-3.26-4.37-4.58-5.91C13.93,5,12.43,3.4,12,3A12.27,12.27,0,0,0,0,.63V.78a9.12,9.12,0,0,1,5.15.54A12.65,12.65,0,0,1,9.63,4.75Zm24.09.78V3.84H23.38V19H33.74V17.27a56.3,56.3,0,0,1-6.51.16V12a38.84,38.84,0,0,1,5.2.08V10.29a29.76,29.76,0,0,1-5.2.08v-5A56.71,56.71,0,0,1,33.72,5.53Zm10.71,6.08c-1.75-1.51-3.87-2-5.37-3a1.57,1.57,0,0,1-.36-2.42c1.26-1.4,3.89-.74,4.5-.6a13.46,13.46,0,0,1,1.93.8V4.48C42,3.56,37,2.69,35,5.85a3.74,3.74,0,0,0,1.18,5c2.11,1.68,5.58,2.48,6,3.84a1.86,1.86,0,0,1-.55,2c-1.87,1.74-4.88.65-6.82-.21v1.87a11.87,11.87,0,0,0,7.12.68,4.92,4.92,0,0,0,3.72-3.54A3.66,3.66,0,0,0,44.43,11.61ZM73,18.17l-.47-.89c-1-1.87-1.81-3.44-2.69-5.48a2.21,2.21,0,0,1,.33-.16,4,4,0,0,0,2.3-4C72.4,5.11,70.06,3.84,68,3.84H60.34V19h3.85V12.71h2.19c.73,1.22,2.22,4.69,2.45,5.23l.45,1H73.4l-.37-.7Zm-4.75-8.12c-.91,1.09-2.78,1-4.07,1V5.51S67.46,5,68.36,6.6A3.75,3.75,0,0,1,68.23,10.05Zm48.92-6.44c-1,0-7.48.1-7.51,7.73s6.4,7.88,7.51,7.87,7.51-.29,7.49-7.87S118.16,3.6,117.16,3.61Zm0,13.49h-.06c-.42,0-3.52.13-3.5-6.05,0-5.73,3-5.57,3.53-5.57s3.5-.16,3.53,5.57C120.71,17.23,117.61,17.1,117.18,17.1Zm9.79.12h0a.46.46,0,0,0,.31-.48c0-.31-.21-.51-.62-.51h-.92v1.9h.34v-.78h.49c.31,0,.38.16.38.51a.55.55,0,0,0,0,.27h.35a.82.82,0,0,1-.1-.5C127.25,17.33,127.08,17.23,127,17.22Zm-.34-.13h-.54V16.5h.54c.17,0,.33.05.33.29S126.84,17.09,126.62,17.09Zm-.18-1.71a1.8,1.8,0,1,0,1.81,1.79A1.79,1.79,0,0,0,126.45,15.38Zm0,3.42a1.62,1.62,0,1,1,1.61-1.63A1.63,1.63,0,0,1,126.45,18.8ZM95.77,11.61c-1.75-1.51-3.87-2-5.37-3A1.57,1.57,0,0,1,90,6.17c1.26-1.4,3.89-.74,4.5-.6a13.46,13.46,0,0,1,1.93.8V4.48c-3.13-.91-8.15-1.79-10.13,1.37a3.74,3.74,0,0,0,1.18,5c2.11,1.68,5.58,2.48,6,3.84a1.86,1.86,0,0,1-.55,2c-1.87,1.74-4.88.65-6.82-.21v1.87a11.87,11.87,0,0,0,7.12.68A4.92,4.92,0,0,0,97,15.45,3.66,3.66,0,0,0,95.77,11.61Zm11.74,0c-1.74-1.51-3.87-2-5.36-3a1.58,1.58,0,0,1-.37-2.42c1.26-1.4,3.89-.74,4.5-.6a13.31,13.31,0,0,1,1.93.8V4.48c-3.14-.91-8.16-1.79-10.13,1.37a3.72,3.72,0,0,0,1.18,5c2.12,1.68,5.58,2.48,6,3.84a1.82,1.82,0,0,1-.55,2c-1.87,1.74-4.87.65-6.81-.21v1.87A11.89,11.89,0,0,0,105,19a5,5,0,0,0,3.73-3.54A3.68,3.68,0,0,0,107.51,11.61ZM74.68,19H85V17.27a56.43,56.43,0,0,1-6.52.16V12a39,39,0,0,1,5.21.08V10.29a29.93,29.93,0,0,1-5.21.08c0-.32,0-5,0-5A56.84,56.84,0,0,1,85,5.53V3.84H74.68Z" style="fill:#8d734a"/></g></g></svg>